<svg width="17" height="13" viewBox="0 0 17 13" fill="none" xmlns="http://www.w3.org/2000/svg">
<path d="M17 2.3879V1.117C17 0.496444 16.5072 0 15.9021 0H1.10287C0.492946 0 0.00500488 0.501409 0.00500488 1.117V2.3879H17Z" fill="#324A5E"/>
<path d="M16.9999 2.32833V11.7509C16.9999 12.3714 16.507 12.8728 15.8971 12.8728H1.10275C0.49282 12.8728 0 12.3714 0 11.7509V2.32833H5.74795L6.3042 1.48438H9.37335L9.92472 2.32833H16.9999Z" fill="white"/>
<path d="M1.57617 2.32833H5.74807L5.19669 1.48438H2.12755L1.57617 2.32833Z" fill="#84DBFF"/>
<path d="M15.424 1.73262C15.6962 1.73262 15.9168 1.50813 15.9168 1.23121C15.9168 0.954285 15.6962 0.729797 15.424 0.729797C15.1518 0.729797 14.9312 0.954285 14.9312 1.23121C14.9312 1.50813 15.1518 1.73262 15.424 1.73262Z" fill="#FF7058"/>
<path d="M13.5307 1.73262C13.8028 1.73262 14.0235 1.50813 14.0235 1.23121C14.0235 0.954285 13.8028 0.729797 13.5307 0.729797C13.2585 0.729797 13.0378 0.954285 13.0378 1.23121C13.0378 1.50813 13.2585 1.73262 13.5307 1.73262Z" fill="#84DBFF"/>
<path d="M13.56 8.47006H12.1075V12.801C12.1075 12.9138 12.0131 13 11.8896 13H9.86331V9.94909H7.13981V13H5.11352C4.99006 13 4.89564 12.9138 4.89564 12.801V8.47006H3.44311C3.24702 8.47006 3.14534 8.25783 3.28333 8.12518L8.34541 3.50903C8.43256 3.42944 8.57055 3.42944 8.6577 3.50903L13.7198 8.12518C13.8505 8.2512 13.7561 8.47006 13.56 8.47006Z" fill="url(#paint0_linear_1152_2)"/>
<defs>
<linearGradient id="paint0_linear_1152_2" x1="0.286271" y1="0.464763" x2="18.6701" y2="12.705" gradientUnits="userSpaceOnUse">
<stop stop-color="#84DBFF"/>
<stop offset="1" stop-color="#1AA6E3"/>
</linearGradient>
</defs>
</svg>
