<svg width="17" height="13" viewBox="0 0 17 13" fill="none" xmlns="http://www.w3.org/2000/svg">
<path d="M15.8943 0H1.10068C0.494803 0 0 0.50838 0 1.13089V2.54709H17V1.13089C16.995 0.50838 16.5052 0 15.8943 0Z" fill="#324A5E"/>
<path d="M10.1334 2.35515L9.58301 1.49921H6.51322L5.95783 2.35515H0V11.8691C0 12.4916 0.494803 13 1.10068 13H15.8993C16.5052 13 17 12.4916 17 11.8691V2.35515H10.1334Z" fill="white"/>
<path d="M1.1311 2.34996H5.30663L4.75629 1.49921H1.68649L1.1311 2.34996Z" fill="#54C0EB"/>
<path d="M15.4247 1.75339C15.698 1.75339 15.9195 1.52578 15.9195 1.24501C15.9195 0.964243 15.698 0.736633 15.4247 0.736633C15.1515 0.736633 14.9299 0.964243 14.9299 1.24501C14.9299 1.52578 15.1515 1.75339 15.4247 1.75339Z" fill="#FA5E3B"/>
<path d="M13.5314 1.75339C13.8047 1.75339 14.0262 1.52578 14.0262 1.24501C14.0262 0.964243 13.8047 0.736633 13.5314 0.736633C13.2582 0.736633 13.0366 0.964243 13.0366 1.24501C13.0366 1.52578 13.2582 1.75339 13.5314 1.75339Z" fill="white"/>
<path d="M8.50005 9.10416C8.0746 9.10416 7.66657 8.93515 7.36573 8.63431C7.06489 8.33347 6.89588 7.92544 6.89588 7.49999C6.89588 7.07454 7.06489 6.66651 7.36573 6.36567C7.66657 6.06483 8.0746 5.89582 8.50005 5.89582C8.9255 5.89582 9.33353 6.06483 9.63437 6.36567C9.93521 6.66651 10.1042 7.07454 10.1042 7.49999C10.1042 7.92544 9.93521 8.33347 9.63437 8.63431C9.33353 8.93515 8.9255 9.10416 8.50005 9.10416ZM11.9055 7.94457C11.9238 7.79791 11.9375 7.65124 11.9375 7.49999C11.9375 7.34874 11.9238 7.19749 11.9055 7.04166L12.8725 6.29457C12.9596 6.22582 12.9825 6.10207 12.9275 6.00124L12.0109 4.41541C11.9559 4.31457 11.8321 4.27332 11.7313 4.31457L10.59 4.77291C10.3517 4.59416 10.1042 4.43832 9.81547 4.32374L9.64588 3.10916C9.63657 3.05517 9.60845 3.00623 9.56651 2.97099C9.52456 2.93576 9.4715 2.91651 9.41672 2.91666H7.58338C7.4688 2.91666 7.37255 2.99916 7.35422 3.10916L7.18463 4.32374C6.89588 4.43832 6.64838 4.59416 6.41005 4.77291L5.2688 4.31457C5.16797 4.27332 5.04422 4.31457 4.98922 4.41541L4.07255 6.00124C4.01297 6.10207 4.04047 6.22582 4.12755 6.29457L5.09463 7.04166C5.0763 7.19749 5.06255 7.34874 5.06255 7.49999C5.06255 7.65124 5.0763 7.79791 5.09463 7.94457L4.12755 8.70541C4.04047 8.77416 4.01297 8.89791 4.07255 8.99874L4.98922 10.5846C5.04422 10.6854 5.16797 10.7221 5.2688 10.6854L6.41005 10.2225C6.64838 10.4058 6.89588 10.5617 7.18463 10.6762L7.35422 11.8908C7.37255 12.0008 7.4688 12.0833 7.58338 12.0833H9.41672C9.5313 12.0833 9.62755 12.0008 9.64588 11.8908L9.81547 10.6762C10.1042 10.5571 10.3517 10.4058 10.59 10.2225L11.7313 10.6854C11.8321 10.7221 11.9559 10.6854 12.0109 10.5846L12.9275 8.99874C12.9825 8.89791 12.9596 8.77416 12.8725 8.70541L11.9055 7.94457Z" fill="url(#paint0_linear_1440_23)"/>
<defs>
<linearGradient id="paint0_linear_1440_23" x1="2" y1="4" x2="13" y2="11" gradientUnits="userSpaceOnUse">
<stop stop-color="#84DBFF"/>
<stop offset="1" stop-color="#1AA6E3"/>
</linearGradient>
</defs>
</svg>
