<svg width="16" height="19" viewBox="0 0 16 19" fill="none" xmlns="http://www.w3.org/2000/svg">
<path d="M8.00007 19C9.13569 19 10.0563 18.1048 10.0563 17.0006C10.0563 15.8963 9.13569 15.0011 8.00007 15.0011C6.86445 15.0011 5.94385 15.8963 5.94385 17.0006C5.94385 18.1048 6.86445 19 8.00007 19Z" fill="#84DBFF"/>
<path d="M4.84617 11.2209C5.56907 11.8509 5.98674 12.7465 5.98674 13.689V14.3138H10.0135V13.689C10.0135 12.7622 10.3991 11.8614 11.1166 11.2521C12.1072 10.4086 12.7337 9.16939 12.7337 7.78955C12.7337 5.14965 10.4472 3.03044 7.6949 3.19706C5.37629 3.34286 3.48071 5.14965 3.2933 7.39904C3.15943 8.91945 3.78593 10.2993 4.84617 11.2209Z" fill="#E6E9EE"/>
<path d="M8.96381 7.72705C8.57291 7.72705 8.23021 7.89888 7.9946 8.16443C7.75899 7.89888 7.41093 7.72705 7.02539 7.72705C6.31856 7.72705 5.74561 8.28419 5.74561 8.9715C5.74561 9.65881 6.31856 10.216 7.02539 10.216C7.26636 10.216 7.49125 10.1483 7.68938 10.0337V15.1417H8.32124V10.0389C8.50866 10.1483 8.73356 10.2107 8.96917 10.2107C9.67599 10.2107 10.249 9.65361 10.249 8.9663C10.2436 8.28419 9.66528 7.72705 8.96381 7.72705ZM7.02004 9.60154C6.66127 9.60154 6.37211 9.32037 6.37211 8.9715C6.37211 8.62264 6.66127 8.34147 7.02004 8.34147C7.3788 8.34147 7.66796 8.62264 7.66796 8.9715C7.66796 9.31516 7.3788 9.60154 7.02004 9.60154ZM8.96381 9.60154C8.60504 9.60154 8.31589 9.32037 8.31589 8.9715C8.31589 8.62264 8.60504 8.34147 8.96381 8.34147C9.32258 8.34147 9.61174 8.62264 9.61174 8.9715C9.60638 9.31516 9.31723 9.60154 8.96381 9.60154Z" fill="#ACB3BA"/>
<path d="M10.3987 14.3138H5.60617C5.55797 14.3138 5.51514 14.3554 5.51514 14.4023V17.4327C5.51514 17.5108 5.57939 17.5733 5.65971 17.5733H10.3505C10.4308 17.5733 10.4951 17.5108 10.4951 17.4327V14.4023C10.4897 14.3554 10.4469 14.3138 10.3987 14.3138Z" fill="#1AA6E3"/>
<path d="M8.00001 2.06194C7.78047 2.06194 7.60376 1.89011 7.60376 1.67662V0.385311C7.60376 0.171828 7.78047 0 8.00001 0C8.21956 0 8.39626 0.171828 8.39626 0.385311V1.68183C8.39626 1.89011 8.21956 2.06194 8.00001 2.06194Z" fill="white"/>
<path d="M13.874 7.77398C13.874 7.5605 14.0507 7.38867 14.2703 7.38867H15.6036C15.8232 7.38867 15.9999 7.5605 15.9999 7.77398C15.9999 7.98747 15.8232 8.15929 15.6036 8.15929H14.2703C14.0507 8.15929 13.874 7.98747 13.874 7.77398Z" fill="white"/>
<path d="M0 7.77398C0 7.5605 0.176707 7.38867 0.396252 7.38867H1.72958C1.94913 7.38867 2.12584 7.5605 2.12584 7.77398C2.12584 7.98747 1.94913 8.15929 1.72958 8.15929H0.396252C0.176707 8.15929 0 7.98747 0 7.77398Z" fill="white"/>
<path d="M12.1555 3.73856C12.0002 3.58756 12.0002 3.34284 12.1555 3.19184L13.098 2.27542C13.2533 2.12442 13.5049 2.12442 13.6602 2.27542C13.8155 2.42642 13.8155 2.67115 13.6602 2.82215L12.7124 3.73856C12.5625 3.88956 12.3108 3.88956 12.1555 3.73856Z" fill="white"/>
<path d="M2.34523 13.2776C2.18994 13.1266 2.18994 12.8818 2.34523 12.7308L3.28766 11.8144C3.44295 11.6634 3.69462 11.6634 3.84991 11.8144C4.0052 11.9654 4.0052 12.2101 3.84991 12.3611L2.90747 13.2776C2.74683 13.4286 2.50051 13.4286 2.34523 13.2776Z" fill="white"/>
<path d="M12.1555 11.8144C12.3108 11.6634 12.5625 11.6634 12.7178 11.8144L13.6602 12.7308C13.8155 12.8818 13.8155 13.1266 13.6602 13.2776C13.5049 13.4286 13.2533 13.4286 13.098 13.2776L12.1555 12.3611C12.0002 12.2101 12.0002 11.9654 12.1555 11.8144Z" fill="white"/>
<path d="M2.34523 2.27542C2.50051 2.12442 2.75219 2.12442 2.90747 2.27542L3.84991 3.19184C4.0052 3.34284 4.0052 3.58756 3.84991 3.73856C3.69462 3.88956 3.44295 3.88956 3.28766 3.73856L2.34523 2.82215C2.18994 2.67115 2.18994 2.42642 2.34523 2.27542Z" fill="white"/>
</svg>
