<?xml version="1.0" encoding="UTF-8" standalone="no"?>
<!-- Created with Inkscape (http://www.inkscape.org/) -->

<svg
   width="31.986664"
   height="31.994873"
   viewBox="0 0 31.986664 31.994873"
   version="1.1"
   id="SVGRoot"
   xmlns:xlink="http://www.w3.org/1999/xlink"
   xmlns="http://www.w3.org/2000/svg"
   xmlns:svg="http://www.w3.org/2000/svg">
  <defs
     id="defs192">
    <linearGradient
       id="logo-___paint0_linear"
       x1="12.69"
       y1="0"
       x2="17.768999"
       y2="31.733"
       gradientUnits="userSpaceOnUse">
      <stop
         stop-color="#66E3FF"
         id="stop14" />
      <stop
         offset="1"
         stop-color="#7064F9"
         id="stop16" />
    </linearGradient>
    <linearGradient
       xlink:href="#logo-___paint0_linear"
       id="linearGradient240"
       gradientUnits="userSpaceOnUse"
       x1="12.69"
       y1="0"
       x2="17.768999"
       y2="31.733"
       gradientTransform="translate(295.28125,444.38449)" />
    <linearGradient
       xlink:href="#logo-___paint0_linear"
       id="linearGradient242"
       gradientUnits="userSpaceOnUse"
       x1="12.69"
       y1="0"
       x2="17.768999"
       y2="31.733"
       gradientTransform="translate(295.28125,444.38449)" />
  </defs>
  <g
     id="layer1"
     transform="translate(-295.44156,-444.38458)">
    <path
       d="m 301.77625,464.26749 19.52,-6.518 c -0.39,-2.44 -0.668,-4.07 -0.99,-5.314 -0.347,-1.338 -0.622,-1.696 -0.73,-1.82 a 3.807,3.807 0 0 0 -1.371,-0.996 c -0.152,-0.065 -0.578,-0.216 -1.956,-0.133 -1.458,0.088 -3.372,0.386 -6.403,0.866 -3.03,0.48 -4.943,0.789 -6.356,1.155 -1.337,0.347 -1.696,0.623 -1.82,0.731 -0.43,0.377 -0.77,0.845 -0.995,1.371 -0.065,0.152 -0.216,0.578 -0.133,1.957 0.088,1.458 0.386,3.373 0.866,6.404 0.134,0.85 0.255,1.61 0.368,2.297 z"
       fill="url(#logo-___paint0_linear)"
       id="path8"
       style="fill:url(#linearGradient240)" />
    <path
       fill-rule="evenodd"
       clip-rule="evenodd"
       d="m 296.39425,462.76449 c -0.928,-5.864 -1.393,-8.796 -0.387,-11.15 a 8.885,8.885 0 0 1 2.324,-3.2 c 1.927,-1.683 4.858,-2.147 10.72,-3.076 5.864,-0.93 8.795,-1.394 11.15,-0.388 a 8.882,8.882 0 0 1 3.198,2.324 c 1.684,1.928 2.148,4.86 3.076,10.725 0.929,5.864 1.393,8.797 0.387,11.15 a 8.883,8.883 0 0 1 -2.323,3.2 c -1.927,1.684 -4.859,2.148 -10.722,3.077 -5.862,0.929 -8.794,1.393 -11.147,0.387 a 8.883,8.883 0 0 1 -3.198,-2.324 c -1.684,-1.928 -2.148,-4.86 -3.077,-10.725 z m 10.341,10.414 c 1.57,-0.095 3.592,-0.412 6.585,-0.886 2.994,-0.474 5.013,-0.798 6.537,-1.193 1.475,-0.383 2.155,-0.756 2.594,-1.14 a 5.711,5.711 0 0 0 1.493,-2.057 c 0.23,-0.536 0.375,-1.298 0.283,-2.82 -0.095,-1.57 -0.412,-3.593 -0.886,-6.587 -0.474,-2.994 -0.797,-5.015 -1.192,-6.538 -0.383,-1.476 -0.757,-2.156 -1.14,-2.595 a 5.71,5.71 0 0 0 -2.056,-1.494 c -0.536,-0.23 -1.298,-0.375 -2.82,-0.283 -1.57,0.095 -3.591,0.412 -6.585,0.886 -2.993,0.475 -5.013,0.798 -6.536,1.193 -1.476,0.383 -2.155,0.757 -2.594,1.14 a 5.712,5.712 0 0 0 -1.494,2.057 c -0.229,0.536 -0.374,1.298 -0.282,2.82 0.095,1.571 0.411,3.593 0.886,6.587 0.474,2.994 0.797,5.015 1.192,6.538 0.383,1.476 0.756,2.156 1.14,2.595 a 5.711,5.711 0 0 0 2.056,1.494 c 0.536,0.23 1.297,0.375 2.82,0.283 z"
       fill="url(#logo-___paint1_linear)"
       id="path10"
       style="fill:url(#linearGradient242)" />
  </g>
</svg>
