<?xml version="1.0" encoding="UTF-8" standalone="no"?>
<!-- Uploaded to: SVG Repo, www.svgrepo.com, Generator: SVG Repo Mixer Tools -->

<svg
   height="800px"
   width="800px"
   version="1.1"
   id="Layer_1"
   viewBox="0 0 496 496"
   xml:space="preserve"
   sodipodi:docname="loading-svgrepo-com.svg"
   inkscape:version="1.2.2 (732a01da63, 2022-12-09)"
   xmlns:inkscape="http://www.inkscape.org/namespaces/inkscape"
   xmlns:sodipodi="http://sodipodi.sourceforge.net/DTD/sodipodi-0.dtd"
   xmlns="http://www.w3.org/2000/svg"
   xmlns:svg="http://www.w3.org/2000/svg"><defs
   id="defs29" /><sodipodi:namedview
   id="namedview27"
   pagecolor="#ffffff"
   bordercolor="#000000"
   borderopacity="0.25"
   inkscape:showpageshadow="2"
   inkscape:pageopacity="0.0"
   inkscape:pagecheckerboard="0"
   inkscape:deskcolor="#d1d1d1"
   showgrid="false"
   inkscape:zoom="1.03625"
   inkscape:cx="245.5971"
   inkscape:cy="399.51749"
   inkscape:window-width="1920"
   inkscape:window-height="1009"
   inkscape:window-x="-8"
   inkscape:window-y="-8"
   inkscape:window-maximized="1"
   inkscape:current-layer="Layer_1" />
<path
   style="fill:#fcd34d;fill-opacity:1"
   d="M248,92c-13.6,0-24-10.4-24-24V24c0-13.6,10.4-24,24-24s24,10.4,24,24v44C272,80.8,261.6,92,248,92z"
   id="path2" />
<path
   style="fill:#fcd34d;fill-opacity:1"
   d="M248,496c-13.6,0-24-10.4-24-24v-44c0-13.6,10.4-24,24-24s24,10.4,24,24v44  C272,485.6,261.6,496,248,496z"
   id="path4" />
<path
   style="fill:#fcd34d;fill-opacity:1"
   d="M157.6,116c-8,0-16-4-20.8-12l-21.6-37.6c-6.4-11.2-2.4-26.4,8.8-32.8s26.4-2.4,32.8,8.8L178.4,80  c6.4,11.2,2.4,26.4-8.8,32.8C166.4,114.4,161.6,116,157.6,116z"
   id="path6" />
<path
   style="fill:#fcd34d;fill-opacity:1"
   d="M360,465.6c-8,0-16-4-20.8-12L317.6,416c-6.4-11.2-2.4-26.4,8.8-32.8c11.2-6.4,26.4-2.4,32.8,8.8  l21.6,37.6c6.4,11.2,2.4,26.4-8.8,32.8C368,464.8,364,465.6,360,465.6z"
   id="path8" />
<path
   style="fill:#fcd34d;fill-opacity:1"
   d="M92,181.6c-4,0-8-0.8-12-3.2l-37.6-21.6c-11.2-6.4-15.2-21.6-8.8-32.8s21.6-15.2,32.8-8.8l37.6,21.6  c11.2,6.4,15.2,21.6,8.8,32.8C108,177.6,100,181.6,92,181.6z"
   id="path10" />
<path
   style="fill:#fcd34d;fill-opacity:1"
   d="M442.4,384c-4,0-8-0.8-12-3.2L392,359.2c-11.2-6.4-15.2-21.6-8.8-32.8c6.4-11.2,21.6-15.2,32.8-8.8  l37.6,21.6c11.2,6.4,15.2,21.6,8.8,32.8C458.4,380,450.4,384,442.4,384z"
   id="path12" />
<path
   style="fill:#fcd34d;fill-opacity:1"
   d="M68,272H24c-13.6,0-24-10.4-24-24s10.4-24,24-24h44c13.6,0,24,10.4,24,24S80.8,272,68,272z"
   id="path14" />
<path
   style="fill:#fcd34d;fill-opacity:1"
   d="M472,272h-44c-13.6,0-24-10.4-24-24s10.4-24,24-24h44c13.6,0,24,10.4,24,24S485.6,272,472,272z"
   id="path16" />
<path
   style="fill:#fcd34d;fill-opacity:1"
   d="M53.6,384c-8,0-16-4-20.8-12c-6.4-11.2-2.4-26.4,8.8-32.8l37.6-21.6c11.2-6.4,26.4-2.4,32.8,8.8  c6.4,11.2,2.4,26.4-8.8,32.8l-37.6,21.6C62.4,383.2,58.4,384,53.6,384z"
   id="path18" />
<path
   style="fill:#fcd34d;fill-opacity:1"
   d="M404,181.6c-8,0-16-4-20.8-12c-6.4-11.2-2.4-26.4,8.8-32.8l37.6-21.6c11.2-6.4,26.4-2.4,32.8,8.8  s2.4,26.4-8.8,32.8L416,178.4C412,180.8,408,181.6,404,181.6z"
   id="path20" />
<path
   style="fill:#fcd34d;fill-opacity:1"
   d="M136,465.6c-4,0-8-0.8-12-3.2c-11.2-6.4-15.2-21.6-8.8-32.8l21.6-37.6c6.4-11.2,21.6-15.2,32.8-8.8  c11.2,6.4,15.2,21.6,8.8,32.8l-21.6,37.6C152,461.6,144,465.6,136,465.6z"
   id="path22" />
<path
   style="fill:#fcd34d;fill-opacity:1"
   d="M338.4,116c-4,0-8-0.8-12-3.2c-11.2-6.4-15.2-21.6-8.8-32.8l21.6-37.6c6.4-11.2,21.6-15.2,32.8-8.8  c11.2,6.4,15.2,21.6,8.8,32.8L359.2,104C354.4,111.2,346.4,116,338.4,116z"
   id="path24" />
</svg>
