<svg width="300" height="284" viewBox="0 0 300 284" fill="none" xmlns="http://www.w3.org/2000/svg">
<rect width="300" height="284" rx="37" fill="#717171"/>
<mask id="mask0_12_32" style="mask-type:alpha" maskUnits="userSpaceOnUse" x="0" y="0" width="300" height="284">
<rect width="300" height="284" rx="37" fill="#717171"/>
</mask>
<g mask="url(#mask0_12_32)">
<path d="M229 142L3.33786e-06 284L3.33786e-06 0L229 142Z" fill="url(#paint0_linear_12_32)"/>
<path d="M150 92L0 1.19209e-06L300 1.19209e-06L150 92Z" fill="url(#paint1_linear_12_32)"/>
<path d="M67 142L300 0V284L67 142Z" fill="url(#paint2_linear_12_32)"/>
<path d="M150.003 134L300 284H0L150.003 134Z" fill="url(#paint3_linear_12_32)"/>
<rect x="35" y="20" width="230" height="227" rx="33" fill="url(#paint4_linear_12_32)"/>
<rect x="60" y="46.6478" width="180" height="26.6478" fill="url(#paint5_linear_12_32)"/>
<rect x="60" y="193.704" width="180" height="26.6478" fill="url(#paint6_linear_12_32)"/>
<rect x="60" y="120.67" width="180" height="26.6478" fill="url(#paint7_linear_12_32)"/>
<rect x="60" y="81.1913" width="32" height="31.5826" fill="url(#paint8_linear_12_32)"/>
<rect x="208" y="154.226" width="32.2" height="31.78" fill="url(#paint9_linear_12_32)"/>
</g>
<defs>
<linearGradient id="paint0_linear_12_32" x1="53.5" y1="142" x2="-52.5" y2="142" gradientUnits="userSpaceOnUse">
<stop stop-color="#9E9E9E"/>
<stop offset="1" stop-color="#8A8A8A"/>
</linearGradient>
<linearGradient id="paint1_linear_12_32" x1="-416.278" y1="107.333" x2="-416.278" y2="-15.3333" gradientUnits="userSpaceOnUse">
<stop stop-color="#949494"/>
<stop offset="1" stop-color="#717171"/>
</linearGradient>
<linearGradient id="paint2_linear_12_32" x1="242.5" y1="130" x2="307" y2="130" gradientUnits="userSpaceOnUse">
<stop stop-color="#707070"/>
<stop offset="1" stop-color="#484848"/>
</linearGradient>
<linearGradient id="paint3_linear_12_32" x1="150" y1="192" x2="150" y2="299" gradientUnits="userSpaceOnUse">
<stop stop-color="#757575"/>
<stop offset="1" stop-color="#9B9B9B"/>
</linearGradient>
<linearGradient id="paint4_linear_12_32" x1="150" y1="20" x2="150" y2="247" gradientUnits="userSpaceOnUse">
<stop stop-color="#575757"/>
<stop offset="1" stop-color="#252525"/>
</linearGradient>
<linearGradient id="paint5_linear_12_32" x1="114.643" y1="28.8826" x2="227.969" y2="82.4866" gradientUnits="userSpaceOnUse">
<stop stop-color="#38B6FF"/>
<stop offset="1" stop-color="#3888FF"/>
</linearGradient>
<linearGradient id="paint6_linear_12_32" x1="79.7449" y1="185.315" x2="209.269" y2="232.741" gradientUnits="userSpaceOnUse">
<stop stop-color="#38B6FF"/>
<stop offset="1" stop-color="#3888FF"/>
</linearGradient>
<linearGradient id="paint7_linear_12_32" x1="195.459" y1="108.826" x2="88.0779" y2="161.647" gradientUnits="userSpaceOnUse">
<stop stop-color="#38B6FF"/>
<stop offset="1" stop-color="#3888FF"/>
</linearGradient>
<linearGradient id="paint8_linear_12_32" x1="60" y1="81.1913" x2="91.5799" y2="113.189" gradientUnits="userSpaceOnUse">
<stop stop-color="#FFDE59"/>
<stop offset="1" stop-color="#FFBD59"/>
</linearGradient>
<linearGradient id="paint9_linear_12_32" x1="208" y1="154.226" x2="239.777" y2="186.423" gradientUnits="userSpaceOnUse">
<stop stop-color="#FFDE59"/>
<stop offset="1" stop-color="#FFBD59"/>
</linearGradient>
</defs>
</svg>
