<?xml version="1.0" encoding="iso-8859-1"?>
<!-- Uploaded to: SVG Repo, www.svgrepo.com, Generator: SVG Repo Mixer Tools -->
<svg height="800px" width="800px" version="1.1" id="Layer_1" xmlns="http://www.w3.org/2000/svg" xmlns:xlink="http://www.w3.org/1999/xlink" 
	 viewBox="0 0 511.992 511.992" xml:space="preserve">
<path style="fill:#FFCA66;" d="M354.283,101.572H27.246C12.199,101.572,0,113.77,0,128.817v327.037
	c0,15.048,12.199,27.246,27.246,27.246h327.037c15.048,0,27.246-12.199,27.246-27.246V128.817
	C381.529,113.77,369.33,101.572,354.283,101.572z"/>
<path style="opacity:0.15;fill:#333333;enable-background:new    ;" d="M354.283,101.572H27.246c-1.971,0-3.893,0.214-5.746,0.613
	v317.331c0,28.065,22.833,50.899,50.897,50.899h304.912c2.669-4.212,4.22-9.202,4.22-14.558V128.817
	C381.529,113.77,369.33,101.572,354.283,101.572z"/>
<path style="fill:#FFDC99;" d="M399.435,65.231H72.397c-15.048,0-27.246,12.199-27.246,27.246v327.037
	c0,15.048,12.199,27.246,27.246,27.246h327.037c15.048,0,27.246-12.199,27.246-27.246V92.478
	C426.681,77.43,414.483,65.231,399.435,65.231z"/>
<path style="opacity:0.15;fill:#333333;enable-background:new    ;" d="M399.435,65.231H72.399c-1.971,0-3.893,0.214-5.746,0.613
	v317.329c0,28.065,22.833,50.899,50.897,50.899h304.912c2.669-4.212,4.22-9.202,4.22-14.558V92.478
	C426.681,77.43,414.483,65.231,399.435,65.231z"/>
<path style="fill:#FFEECC;" d="M444.587,28.891H117.55c-15.048,0-27.246,12.199-27.246,27.246v327.037
	c0,15.048,12.199,27.246,27.246,27.246h327.037c15.048,0,27.246-12.199,27.246-27.246V56.137
	C471.834,41.089,459.635,28.891,444.587,28.891z"/>
<polygon style="fill:#85A1A6;" points="319.038,217.797 401.369,170.516 416.984,197.705 319.039,253.953 "/>
<ellipse transform="matrix(0.8672 -0.498 0.498 0.8672 -48.4664 217.017)" style="fill:#FF99AA;" cx="382.613" cy="199.369" rx="25.857" ry="67.848"/>
<path style="fill:#D9576D;" d="M460.029,99.925L374.14,149.25c-8.426,4.839-4.626,27.274,8.488,50.107
	c13.114,22.835,30.575,37.423,39.002,32.583l85.889-49.326L460.029,99.925z"/>
<path style="fill:#FFCA66;" d="M319.039,288.124c-4.9,0-8.87-3.971-8.87-8.87v-97.905c0-4.898,3.97-8.87,8.87-8.87
	c4.9,0,8.87,3.971,8.87,8.87v97.905C327.909,284.153,323.938,288.124,319.039,288.124z"/>
<ellipse transform="matrix(0.8672 -0.498 0.498 0.8672 -6.1035 259.6734)" style="fill:#FF99AA;" cx="483.763" cy="141.279" rx="17.594" ry="47.684"/>
</svg>