<svg width="88" height="68" viewBox="0 0 88 68" fill="none" xmlns="http://www.w3.org/2000/svg">
<path d="M82.2762 0H5.69765C2.56133 0 0 2.65922 0 5.9154V13.3232H88V5.9154C87.9739 2.65922 85.4387 0 82.2762 0Z" fill="#324A5E"/>
<path d="M52.455 12.3192L49.6062 7.84198H33.7155L30.8405 12.3192H0V62.0846C0 65.3408 2.56133 68 5.69765 68H82.3024C85.4387 68 88 65.3408 88 62.0846V12.3192H52.455Z" fill="white"/>
<path d="M5.85522 12.2921H27.4697L24.6209 7.84198H8.73019L5.85522 12.2921Z" fill="#54C0EB"/>
<path d="M79.8458 9.17159C81.2603 9.17159 82.4071 7.98101 82.4071 6.51237C82.4071 5.04372 81.2603 3.85315 79.8458 3.85315C78.4312 3.85315 77.2844 5.04372 77.2844 6.51237C77.2844 7.98101 78.4312 9.17159 79.8458 9.17159Z" fill="#FA5E3B"/>
<path d="M70.045 9.17159C71.4596 9.17159 72.6063 7.98101 72.6063 6.51237C72.6063 5.04372 71.4596 3.85315 70.045 3.85315C68.6304 3.85315 67.4836 5.04372 67.4836 6.51237C67.4836 7.98101 68.6304 9.17159 70.045 9.17159Z" fill="white"/>
<path d="M15.3677 40.811V36.1167L31.4152 28.2747V33.3218L20.8301 38.396L31.4152 43.6059V48.653L15.3677 40.811Z" fill="url(#paint0_linear_1106_11)"/>
<path d="M48.5598 24.3944H53.2382L39.3861 55.8166H34.7339L48.5598 24.3944Z" fill="url(#paint1_linear_1106_11)"/>
<path d="M72.6059 36.1167V40.811L56.5583 48.653V43.5788L67.1434 38.3689L56.5583 33.2946V28.2476L72.6059 36.1167Z" fill="url(#paint2_linear_1106_11)"/>
<defs>
<linearGradient id="paint0_linear_1106_11" x1="11.9376" y1="11.2291" x2="45.0073" y2="21.8214" gradientUnits="userSpaceOnUse">
<stop stop-color="#84DBFF"/>
<stop offset="1" stop-color="#1AA6E3"/>
</linearGradient>
<linearGradient id="paint1_linear_1106_11" x1="30.7787" y1="-1.88897" x2="70.5419" y2="7.63544" gradientUnits="userSpaceOnUse">
<stop stop-color="#84DBFF"/>
<stop offset="1" stop-color="#1AA6E3"/>
</linearGradient>
<linearGradient id="paint2_linear_1106_11" x1="53.1283" y1="11.1792" x2="86.2061" y2="21.7601" gradientUnits="userSpaceOnUse">
<stop stop-color="#84DBFF"/>
<stop offset="1" stop-color="#1AA6E3"/>
</linearGradient>
</defs>
</svg>
